<svg xmlns="http://www.w3.org/2000/svg" width="724" height="521" xmlns:xlink="http://www.w3.org/1999/xlink" joint-selector="svg" id="v-2" class="waiting"><defs joint-selector="defs" class="waiting"><marker id="v-21429980022" orient="auto" overflow="visible" markerUnits="userSpaceOnUse" class="waiting"><path id="v-185" stroke="black" fill="none" transform="rotate(180)" d="m 10,-6 l -10,6 10,6" stroke-width="1.2" class="waiting"/></marker><marker id="v-2-933205445" orient="auto" overflow="visible" markerUnits="userSpaceOnUse" class="waiting"><path id="v-203" stroke="black" fill="black" transform="rotate(180)" d="m 12,-6 l -12,6 12,6 z" stroke-width="1.2" class="waiting"/></marker></defs><g joint-selector="layers" class="joint-layers waiting" transform="matrix(1,0,0,1,-103,-19)" style="cursor: move;"><g joint-selector="back" class="joint-back-layer waiting" style="cursor: move;"/><g joint-selector="cells" class="joint-cells-layer joint-viewport waiting" style="cursor: move;"><g model-id="dc5b3b6d-09b9-41a9-a7df-a18c5fcda4c4" data-type="Container" id="j_54" class="joint-cell joint-type-container joint-element joint-theme-default waiting" transform="translate(133,77)" style="cursor: move;"><g id="v-361" style="cursor: move;" class="waiting"><rect class="boundary waiting" id="v-364" fill="rgb(242,242,242)" height="120" rx="100" ry="40" stroke="black" stroke-dasharray="10,5,4,4" stroke-width="2" width="200" style="" display="none"/><circle class="element actorSymbol waiting" id="v-362" cx="40" cy="40" fill="rgb(205,254,205)" r="40" stroke="black" stroke-width="2" transform="translate(-20, -20)" style=""/><path class="waiting"/><text class="content waiting" id="v-363" font-size="12" xml:space="preserve" y="0.8em" fill="#000000" font-family="Arial, helvetica, sans-serif" text-anchor="middle" transform="matrix(1,0,0,1,20,14.4)"><tspan dy="0" class="v-line waiting">Aluno</tspan></text></g></g><g model-id="68dd9af8-5457-4b17-ac60-1e74ba44a4b8" data-type="Container" id="j_53" class="joint-cell joint-type-container joint-element joint-theme-default waiting" transform="translate(757,93)" style="cursor: move;"><g id="v-348" style="cursor: move;" class="waiting"><rect class="boundary waiting" id="v-351" fill="rgb(242,242,242)" height="120" rx="100" ry="40" stroke="black" stroke-dasharray="10,5,4,4" stroke-width="2" width="200" style="" display="none"/><circle class="element actorSymbol waiting" id="v-349" cx="40" cy="40" fill="rgb(205,254,205)" r="40" stroke="black" stroke-width="2" transform="translate(-20, -20)" style=""/><path class="waiting"/><text class="content waiting" id="v-350" font-size="12" xml:space="preserve" y="0.8em" fill="#000000" font-family="Arial, helvetica, sans-serif" text-anchor="middle" transform="matrix(1,0,0,1,20,14.4)"><tspan dy="0" class="v-line waiting">Instrutores</tspan></text></g></g><g model-id="e0fe654b-8aaa-4d16-a89f-e7c36227cdba" data-type="Container" id="j_52" class="joint-cell joint-type-container joint-element joint-theme-default waiting" transform="translate(482,469)" style="cursor: move;"><g id="v-341" style="cursor: move;" class="waiting"><rect class="boundary waiting" id="v-344" fill="rgb(242,242,242)" height="120" rx="100" ry="40" stroke="black" stroke-dasharray="10,5,4,4" stroke-width="2" width="200" style="" display="none"/><circle class="element actorSymbol waiting" id="v-342" cx="40" cy="40" fill="rgb(205,254,205)" r="40" stroke="black" stroke-width="2" transform="translate(-20, -20)" style=""/><path class="waiting"/><text class="content waiting" id="v-343" font-size="12" xml:space="preserve" y="0.8em" fill="#000000" font-family="Arial, helvetica, sans-serif" text-anchor="middle" transform="matrix(1,0,0,1,20,14.4)"><tspan dy="0" class="v-line waiting">Organizador</tspan></text></g></g><g model-id="51ed58d4-c6e7-4de3-b661-b41151652e5f" data-type="DependencyLink" id="j_84" class="joint-cell joint-type-dependencylink joint-link joint-theme-default waiting" style="cursor: move;"><path joint-selector="connection-wrap" id="v-830" fill="none" stroke="rgba(190, 190, 190, 0)" stroke-linecap="round" stroke-width="30" d="M 635.19 310.5 C 600.2383333333333 361.70833333333337 565.2866666666666 412.9166666666667 549 436 C 532.7133333333334 459.0833333333333 535.0916666666667 454.04166666666663 537.47 449" class="c-connection-wrap waiting"/><path joint-selector="line" id="v-829" fill="none" stroke="black" stroke-width="1" d="M 635.19 310.5 C 600.2383333333333 361.70833333333337 565.2866666666666 412.9166666666667 549 436 C 532.7133333333334 459.0833333333333 535.0916666666667 454.04166666666663 537.47 449" class="waiting"/><path joint-selector="label" id="v-831" d="m 0,-10 l 0,20 4,0 c 10,0, 10 -20, 0,-20 l -4,0" fill="white" stroke="black" stroke-width="2" transform="matrix(-0.5654646359780857,0.8247725416490118,-0.8247725416490118,-0.5654646359780857,584.7,384.3)" class="waiting"/></g><g model-id="ebd75705-fd29-49ed-a17b-feb9ee86eac3" data-type="DependencyLink" id="j_83" class="joint-cell joint-type-dependencylink joint-link joint-theme-default waiting" style="cursor: move;"><path joint-selector="connection-wrap" class="c-connection-wrap waiting" id="v-827" fill="none" stroke="rgba(190, 190, 190, 0)" stroke-linecap="round" stroke-width="30" d="M 748.23 153 L 645.03 296.5"/><path joint-selector="line" id="v-826" fill="none" stroke="black" stroke-width="1" d="M 748.23 153 L 645.03 296.5" class="waiting"/><path joint-selector="label" id="v-828" d="m 0,-10 l 0,20 4,0 c 10,0, 10 -20, 0,-20 l -4,0" fill="white" stroke="black" stroke-width="2" transform="matrix(-0.5838575281774427,0.8118561367573239,-0.8118561367573239,-0.5838575281774427,696.6,224.8)" class="waiting"/></g><g model-id="0e862b45-f390-492c-bd47-bc96a40c92a0" data-type="DependencyLink" id="j_78" class="joint-cell joint-type-dependencylink joint-link joint-theme-default waiting" style="cursor: move;"><path joint-selector="connection-wrap" id="v-724" fill="none" stroke="rgba(190, 190, 190, 0)" stroke-linecap="round" stroke-width="30" d="M 278 314 C 352.5925 367.75 427.18499999999995 421.5 458 444 C 488.81500000000005 466.5 475.8525 457.75 462.89 449" class="c-connection-wrap waiting"/><path joint-selector="line" id="v-723" fill="none" stroke="black" stroke-width="1" d="M 278 314 C 352.5925 367.75 427.18499999999995 421.5 458 444 C 488.81500000000005 466.5 475.8525 457.75 462.89 449" class="waiting"/><path joint-selector="label" id="v-725" d="m 0,-10 l 0,20 4,0 c 10,0, 10 -20, 0,-20 l -4,0" fill="white" stroke="black" stroke-width="2" transform="matrix(0.8108641817661896,0.5852343793119539,-0.5852343793119539,0.8108641817661896,384.4,390.7)" class="waiting"/></g><g model-id="f5f5d270-d5fa-4579-8dc5-b75d801f4dc0" data-type="DependencyLink" id="j_77" class="joint-cell joint-type-dependencylink joint-link joint-theme-default waiting" style="cursor: move;"><path joint-selector="connection-wrap" class="c-connection-wrap waiting" id="v-721" fill="none" stroke="rgba(190, 190, 190, 0)" stroke-linecap="round" stroke-width="30" d="M 185.17 137 C 181.82916666666665 127.41666666666667 178.48833333333332 117.83333333333334 190 143 C 201.51166666666668 168.16666666666666 227.87583333333333 228.08333333333331 254.24 288"/><path joint-selector="line" id="v-720" fill="none" stroke="black" stroke-width="1" d="M 185.17 137 C 181.82916666666665 127.41666666666667 178.48833333333332 117.83333333333334 190 143 C 201.51166666666668 168.16666666666666 227.87583333333333 228.08333333333331 254.24 288" class="waiting"/><path joint-selector="label" id="v-722" d="m 0,-10 l 0,20 4,0 c 10,0, 10 -20, 0,-20 l -4,0" fill="white" stroke="black" stroke-width="2" transform="matrix(0.40438631807595127,0.9145882711652142,-0.9145882711652142,0.40438631807595127,216.6,202.5)" class="waiting"/></g><g model-id="f37862fc-696c-4792-bf88-42cac51416c4" data-type="DependencyLink" id="j_75" class="joint-cell joint-type-dependencylink joint-link joint-theme-default waiting" style="cursor: move;"><path joint-selector="connection-wrap" id="v-710" fill="none" stroke="rgba(190, 190, 190, 0)" stroke-linecap="round" stroke-width="30" d="M 162 487.5 L 153.92 137" class="c-connection-wrap waiting"/><path joint-selector="line" id="v-709" fill="none" stroke="black" stroke-width="1" d="M 162 487.5 L 153.92 137" class="waiting"/><path joint-selector="label" id="v-711" d="m 0,-10 l 0,20 4,0 c 10,0, 10 -20, 0,-20 l -4,0" fill="white" stroke="black" stroke-width="2" transform="matrix(-0.023046553310790748,-0.9997343929166851,0.9997343929166851,-0.023046553310790748,158,312.3)" class="waiting"/></g><g model-id="fa8b982e-1775-4292-a7d3-8c685ed61e3e" data-type="DependencyLink" id="j_74" class="joint-cell joint-type-dependencylink joint-link joint-theme-default waiting" style="cursor: move;"><path joint-selector="connection-wrap" class="c-connection-wrap waiting" id="v-707" fill="none" stroke="rgba(190, 190, 190, 0)" stroke-linecap="round" stroke-width="30" d="M 462 489.65 L 180.66 494.2"/><path joint-selector="line" id="v-706" fill="none" stroke="black" stroke-width="1" d="M 462 489.65 L 180.66 494.2" class="waiting"/><path joint-selector="label" id="v-708" d="m 0,-10 l 0,20 4,0 c 10,0, 10 -20, 0,-20 l -4,0" fill="white" stroke="black" stroke-width="2" transform="matrix(-0.9998692482383693,0.016170541958700903,-0.016170541958700903,-0.9998692482383693,321.3,491.9)" class="waiting"/></g><g model-id="c629cbff-d933-4354-af48-bbb79a1a5fb3" data-type="DependencyLink" id="j_72" class="joint-cell joint-type-dependencylink joint-link joint-theme-default waiting" style="cursor: move;"><path joint-selector="connection-wrap" id="v-696" fill="none" stroke="rgba(190, 190, 190, 0)" stroke-linecap="round" stroke-width="30" d="M 743.32 488.55 L 542 488.93" class="c-connection-wrap waiting"/><path joint-selector="line" id="v-695" fill="none" stroke="black" stroke-width="1" d="M 743.32 488.55 L 542 488.93" class="waiting"/><path joint-selector="label" id="v-697" d="m 0,-10 l 0,20 4,0 c 10,0, 10 -20, 0,-20 l -4,0" fill="white" stroke="black" stroke-width="2" transform="matrix(-0.999998218391947,0.001887647459631623,-0.001887647459631623,-0.999998218391947,642.7,488.7)" class="waiting"/></g><g model-id="2e5c5154-3673-493c-9828-2d3e47814c1d" data-type="DependencyLink" id="j_71" class="joint-cell joint-type-dependencylink joint-link joint-theme-default waiting" style="cursor: move;"><path joint-selector="connection-wrap" class="c-connection-wrap waiting" id="v-693" fill="none" stroke="rgba(190, 190, 190, 0)" stroke-linecap="round" stroke-width="30" d="M 776.15 153 L 769.15 481.5"/><path joint-selector="line" id="v-692" fill="none" stroke="black" stroke-width="1" d="M 776.15 153 L 769.15 481.5" class="waiting"/><path joint-selector="label" id="v-694" d="m 0,-10 l 0,20 4,0 c 10,0, 10 -20, 0,-20 l -4,0" fill="white" stroke="black" stroke-width="2" transform="matrix(-0.021304209469031273,0.9997730395739323,-0.9997730395739323,-0.021304209469031273,772.7,317.3)" class="waiting"/></g><g model-id="47dbcb4a-45e0-47d9-8a44-977c382087b9" data-type="DependencyLink" id="j_66" class="joint-cell joint-type-dependencylink joint-link joint-theme-default waiting" style="cursor: move;"><path joint-selector="connection-wrap" id="v-644" fill="none" stroke="rgba(190, 190, 190, 0)" stroke-linecap="round" stroke-width="30" d="M 365.28 66.49 L 193 91.25" class="c-connection-wrap waiting"/><path joint-selector="line" id="v-643" fill="none" stroke="black" stroke-width="1" d="M 365.28 66.49 L 193 91.25" class="waiting"/><path joint-selector="label" id="v-645" d="m 0,-10 l 0,20 4,0 c 10,0, 10 -20, 0,-20 l -4,0" fill="white" stroke="black" stroke-width="2" transform="matrix(-0.9898296509107728,0.14225773152225354,-0.14225773152225354,-0.9898296509107728,279.1,78.9)" class="waiting"/></g><g model-id="80c68f65-1c9a-4ba5-b81d-7681642514b4" data-type="DependencyLink" id="j_65" class="joint-cell joint-type-dependencylink joint-link joint-theme-default waiting" style="cursor: move;"><path joint-selector="connection-wrap" class="c-connection-wrap waiting" id="v-641" fill="none" stroke="rgba(190, 190, 190, 0)" stroke-linecap="round" stroke-width="30" d="M 737 106.93 L 473.64 66.93"/><path joint-selector="line" id="v-640" fill="none" stroke="black" stroke-width="1" d="M 737 106.93 L 473.64 66.93" class="waiting"/><path joint-selector="label" id="v-642" d="m 0,-10 l 0,20 4,0 c 10,0, 10 -20, 0,-20 l -4,0" fill="white" stroke="black" stroke-width="2" transform="matrix(-0.988661506078834,-0.1501613345636347,0.1501613345636347,-0.988661506078834,605.3,86.9)" class="waiting"/></g><g model-id="c7056de8-661f-4a81-90fa-fd9c068a492e" data-type="DependencyLink" id="j_60" class="joint-cell joint-type-dependencylink joint-link joint-theme-default waiting" style="cursor: move;"><path joint-selector="connection-wrap" id="v-394" fill="none" stroke="rgba(190, 190, 190, 0)" stroke-linecap="round" stroke-width="30" d="M 489.17 153.89 L 737 118.68" class="c-connection-wrap waiting"/><path joint-selector="line" id="v-393" fill="none" stroke="black" stroke-width="1" d="M 489.17 153.89 L 737 118.68" class="waiting"/><path joint-selector="label" id="v-395" d="m 0,-10 l 0,20 4,0 c 10,0, 10 -20, 0,-20 l -4,0" fill="white" stroke="black" stroke-width="2" transform="matrix(0.9900578356632362,-0.1406608760168527,0.1406608760168527,0.9900578356632362,613.1,136.3)" class="waiting"/></g><g model-id="9025e915-d999-40f4-b5e9-2a2a236b9655" data-type="DependencyLink" id="j_59" class="joint-cell joint-type-dependencylink joint-link joint-theme-default waiting" style="cursor: move;"><path joint-selector="connection-wrap" class="c-connection-wrap waiting" id="v-391" fill="none" stroke="rgba(190, 190, 190, 0)" stroke-linecap="round" stroke-width="30" d="M 193 106.82 L 356.76 147.04"/><path joint-selector="line" id="v-390" fill="none" stroke="black" stroke-width="1" d="M 193 106.82 L 356.76 147.04" class="waiting"/><path joint-selector="label" id="v-392" d="m 0,-10 l 0,20 4,0 c 10,0, 10 -20, 0,-20 l -4,0" fill="white" stroke="black" stroke-width="2" transform="matrix(0.9711388329087564,0.23851492032285646,-0.23851492032285646,0.9711388329087564,274.9,126.9)" class="waiting"/></g><g model-id="fe2ddf50-1d2a-4ea2-a92c-eb148579606d" data-type="DependencyLink" id="j_57" class="joint-cell joint-type-dependencylink joint-link joint-theme-default waiting" style="cursor: move;"><path joint-selector="connection-wrap" class="c-connection-wrap waiting" id="v-380" fill="none" stroke="rgba(190, 190, 190, 0)" stroke-linecap="round" stroke-width="30" d="M 462.01 110.78 L 737 112.72"/><path joint-selector="line" id="v-379" fill="none" stroke="black" stroke-width="1" d="M 462.01 110.78 L 737 112.72" class="waiting"/><path joint-selector="label" id="v-381" d="m 0,-10 l 0,20 4,0 c 10,0, 10 -20, 0,-20 l -4,0" fill="white" stroke="black" stroke-width="2" transform="matrix(0.9999751158121373,0.007054626602643778,-0.007054626602643778,0.9999751158121373,599.5,111.8)" class="waiting"/></g><g model-id="3db0ead2-cb31-4f38-8f39-5802dbc498a1" data-type="DependencyLink" id="j_56" class="joint-cell joint-type-dependencylink joint-link joint-theme-default waiting" style="cursor: move;"><path joint-selector="connection-wrap" class="c-connection-wrap waiting" id="v-377" fill="none" stroke="rgba(190, 190, 190, 0)" stroke-linecap="round" stroke-width="30" d="M 193 99 L 383.99 108.55"/><path joint-selector="line" id="v-376" fill="none" stroke="black" stroke-width="1" d="M 193 99 L 383.99 108.55" class="waiting"/><path joint-selector="label" id="v-378" d="m 0,-10 l 0,20 4,0 c 10,0, 10 -20, 0,-20 l -4,0" fill="white" stroke="black" stroke-width="2" transform="matrix(0.9987522085194004,0.049940224044554136,-0.049940224044554136,0.9987522085194004,288.5,103.8)" class="waiting"/></g><g model-id="fee2bffd-b61f-4647-8d72-219796e0a542" data-type="Goal" id="j_55" class="joint-cell joint-type-goal joint-element joint-theme-default waiting" fill="#ffffff" stroke="none" transform="translate(378,93)" style="cursor: move;"><g class="scalable waiting" transform="scale(0.6923076923076923,1.1666666666666667)" style="cursor: move;"><rect class="element waiting" id="v-371" fill="#ffbdbd" height="30" rx="20" stroke="black" stroke-width="2" vector-effect="non-scaling-stroke" width="130"/></g><text class="content waiting" id="v-372" font-size="12" xml:space="preserve" y="0.8em" font-weight="bold" fill="#000000" text-anchor="middle" font-family="Arial, helvetica, sans-serif" transform="matrix(1,0,0,1,45,5.9)"><tspan dy="0" class="v-line waiting">Aprender</tspan><tspan dy="1em" x="0" class="v-line waiting">assunto novo</tspan></text></g><g model-id="756ef536-a34b-4e86-851d-89458d017665" data-type="Task" id="j_58" class="joint-cell joint-type-task joint-element joint-theme-default waiting" fill="#ffffff" stroke="none" transform="translate(343,136)" style="cursor: move;"><g class="scalable waiting" transform="scale(1.2276442307692308,1.5151909722222223)" style="cursor: move;"><polygon class="element waiting" id="v-385" fill="#f1cbff" height="36" points="0,18 15,0 115,0 130,18 115,36 15,36" stroke="black" stroke-width="2" vector-effect="non-scaling-stroke" width="130"/></g><text class="content waiting" id="v-386" font-size="12" xml:space="preserve" y="0.8em" font-weight="bold" text-anchor="middle" fill="#000000" font-family="Arial, helvetica, sans-serif" transform="matrix(1,0,0,1,79.8,9.7)"><tspan dy="0" class="v-line waiting">Fazer</tspan><tspan dy="1em" x="0" class="v-line waiting">exercícios/Comparecer</tspan><tspan dy="1em" x="0" class="v-line waiting">às aulas</tspan></text></g><g model-id="27665900-9f2a-41bf-a230-97f66bab766e" data-type="Quality" id="j_64" class="joint-cell joint-type-quality joint-element joint-theme-default waiting" fill="#ffffff" stroke="none" transform="translate(356,30)" style="cursor: move;"><g class="scalable waiting" transform="scale(1.1048459896709755,1.010765593365922)" style="cursor: move;"><path class="element waiting" id="v-635" d="m 60.637955,-4.0358 c 17.5174,2.2042 29.9953,-10.69554 41.892705,-4.7858 22.34142,10.8714 11.2203,43.7743 -2.25,47.7322 -8.276505,2.9084 -13.960205,5.1934 -46.142805,-2.1786 -6.7454,-2.2317 -28.2652,6.0799 -35.4643,4.7143 C 9.072156,39.4809 6.491756,33.7693 3.744956,28.482 c -6.3069,-15.1266 -2.5738,-28.0439 7.981099,-34.7856 10.5549,-6.74179 27.9316,-7.30796 48.9119,2.2678 z" fill="#c9c9ff" stroke="black" stroke-width="2" vector-effect="non-scaling-stroke" transform="matrix(1,0,0,1,-0.7,11.3)"/></g><text class="content waiting" id="v-636" font-size="12" xml:space="preserve" y="0.8em" font-weight="bold" text-anchor="middle" fill="#000000" font-family="Arial, helvetica, sans-serif" transform="matrix(1,0,0,1,63.3,17.1)"><tspan dy="0" class="v-line waiting">Comparecimento e</tspan><tspan dy="1em" x="0" class="v-line waiting">Empenho</tspan></text></g><g model-id="b2dc3bac-0efe-4e5a-8d26-80cbdb7f99b7" data-type="Goal" id="j_70" class="joint-cell joint-type-goal joint-element joint-theme-default waiting" fill="#ffffff" stroke="none" transform="translate(724,471)" style="cursor: move;"><g class="scalable waiting" transform="scale(0.6923076923076923,1.1666666666666667)" style="cursor: move;"><rect class="element waiting" id="v-687" fill="#FFBDBD" height="30" rx="20" stroke="black" stroke-width="2" vector-effect="non-scaling-stroke" width="130"/></g><text class="content waiting" id="v-688" font-size="12" xml:space="preserve" y="0.8em" font-weight="bold" fill="#000000" text-anchor="middle" font-family="Arial, helvetica, sans-serif" transform="matrix(1,0,0,1,45,11.9)"><tspan dy="0" class="v-line waiting">Ser pago</tspan></text></g><g model-id="fd27166e-a8e5-4a24-8ca9-f503b366d4f3" data-type="Resource" id="j_73" class="joint-cell joint-type-resource joint-element joint-theme-default waiting" fill="#ffffff" stroke="none" transform="translate(117,477)" style="cursor: move;"><g class="scalable waiting" transform="scale(0.6923076923076923,1.1666666666666667)" style="cursor: move;"><rect class="element waiting" id="v-701" fill="#A7C7E7" height="30" rx="0" stroke="black" stroke-width="2" vector-effect="non-scaling-stroke" width="130"/></g><text class="content waiting" id="v-702" font-size="12" xml:space="preserve" y="0.8em" font-weight="bold" fill="#000000" text-anchor="middle" font-family="Arial, helvetica, sans-serif" transform="matrix(1,0,0,1,45,11.9)"><tspan dy="0" class="v-line waiting">Dados</tspan></text></g><g model-id="367ad986-183e-4084-b6e1-0e569017a5bb" data-type="Task" id="j_76" class="joint-cell joint-type-task joint-element joint-theme-default waiting" fill="#ffffff" stroke="none" transform="translate(186,284)" style="cursor: move;"><g class="scalable waiting" transform="scale(1.1391826923076922,0.9457465277777778)" style="cursor: move;"><polygon class="element waiting" id="v-715" fill="#F1CBFF" height="36" points="0,18 15,0 115,0 130,18 115,36 15,36" stroke="black" stroke-width="2" vector-effect="non-scaling-stroke" width="130"/></g><text class="content waiting" id="v-716" font-size="12" xml:space="preserve" y="0.8em" font-weight="bold" text-anchor="middle" fill="#000000" font-family="Arial, helvetica, sans-serif" transform="matrix(1,0,0,1,74,5.4)"><tspan dy="0" class="v-line waiting">Realizar</tspan><tspan dy="1em" x="0" class="v-line waiting">matrícula/Pagamento</tspan></text></g><g model-id="88da352f-69b6-46c1-b973-6e254b9f23f6" data-type="Resource" id="j_82" class="joint-cell joint-type-resource joint-element joint-theme-default waiting" fill="#ffffff" stroke="none" transform="translate(595,286)" style="cursor: move;"><g class="scalable waiting" transform="scale(0.6923076923076923,1.1666666666666667)" style="cursor: move;"><rect class="element waiting" id="v-821" fill="#A7C7E7" height="30" rx="0" stroke="black" stroke-width="2" vector-effect="non-scaling-stroke" width="130"/></g><text class="content waiting" id="v-822" font-size="12" xml:space="preserve" y="0.8em" font-weight="bold" fill="#000000" text-anchor="middle" font-family="Arial, helvetica, sans-serif" transform="matrix(1,0,0,1,45,11.9)"><tspan dy="0" class="v-line waiting">Pagamento</tspan></text></g></g><g joint-selector="front" class="joint-front-layer waiting" style="cursor: move;"/><g joint-selector="tools" class="joint-tools-layer waiting" style="cursor: move;"><g class="joint-tools joint-theme-default waiting" style="cursor: move;"><g class="joint-tool joint-theme-default waiting" data-tool-name="vertices" model-id="3db0ead2-cb31-4f38-8f39-5802dbc498a1" style="cursor: move; display: none;"><path fill="none" stroke="transparent" stroke-width="10" cursor="cell" joint-selector="connection" d="M 193 99 L 383.99 108.55" class="joint-vertices-path waiting"/></g></g><g class="joint-tools joint-theme-default waiting" style="cursor: move;"><g class="joint-tool joint-theme-default waiting" data-tool-name="vertices" model-id="fe2ddf50-1d2a-4ea2-a92c-eb148579606d" style="cursor: move; display: none;"><path fill="none" stroke="transparent" stroke-width="10" cursor="cell" joint-selector="connection" d="M 462.01 110.78 L 737 112.72" class="joint-vertices-path waiting"/></g></g><g class="joint-tools joint-theme-default waiting" style="cursor: move;"><g class="joint-tool joint-theme-default waiting" data-tool-name="vertices" model-id="9025e915-d999-40f4-b5e9-2a2a236b9655" style="cursor: move; display: none;"><path fill="none" stroke="transparent" stroke-width="10" cursor="cell" joint-selector="connection" d="M 193 106.82 L 356.76 147.04" class="joint-vertices-path waiting"/></g></g><g class="joint-tools joint-theme-default waiting" style="cursor: move;"><g class="joint-tool joint-theme-default waiting" data-tool-name="vertices" model-id="c7056de8-661f-4a81-90fa-fd9c068a492e" style="cursor: move; display: none;"><path fill="none" stroke="transparent" stroke-width="10" cursor="cell" joint-selector="connection" d="M 489.17 153.89 L 737 118.68" class="joint-vertices-path waiting"/></g></g><g class="joint-tools joint-theme-default waiting" style="cursor: move;"><g class="joint-tool joint-theme-default waiting" data-tool-name="vertices" model-id="80c68f65-1c9a-4ba5-b81d-7681642514b4" style="cursor: move; display: none;"><path fill="none" stroke="transparent" stroke-width="10" cursor="cell" joint-selector="connection" d="M 737 106.93 L 473.64 66.93" class="joint-vertices-path waiting"/></g></g><g class="joint-tools joint-theme-default waiting" style="cursor: move;"><g class="joint-tool joint-theme-default waiting" data-tool-name="vertices" model-id="47dbcb4a-45e0-47d9-8a44-977c382087b9" style="cursor: move; display: none;"><path fill="none" stroke="transparent" stroke-width="10" cursor="cell" joint-selector="connection" d="M 365.28 66.49 L 193 91.25" class="joint-vertices-path waiting"/></g></g><g class="joint-tools joint-theme-default waiting" style="cursor: move;"><g class="joint-tool joint-theme-default waiting" data-tool-name="vertices" model-id="2e5c5154-3673-493c-9828-2d3e47814c1d" style="cursor: move; display: none;"><path fill="none" stroke="transparent" stroke-width="10" cursor="cell" joint-selector="connection" d="M 776.15 153 L 769.15 481.5" class="joint-vertices-path waiting"/></g></g><g class="joint-tools joint-theme-default waiting" style="cursor: move;"><g class="joint-tool joint-theme-default waiting" data-tool-name="vertices" model-id="c629cbff-d933-4354-af48-bbb79a1a5fb3" style="cursor: move; display: none;"><path fill="none" stroke="transparent" stroke-width="10" cursor="cell" joint-selector="connection" d="M 743.32 488.55 L 542 488.93" class="joint-vertices-path waiting"/></g></g><g class="joint-tools joint-theme-default waiting" style="cursor: move;"><g class="joint-tool joint-theme-default waiting" data-tool-name="vertices" model-id="fa8b982e-1775-4292-a7d3-8c685ed61e3e" style="cursor: move; display: none;"><path fill="none" stroke="transparent" stroke-width="10" cursor="cell" joint-selector="connection" d="M 462 489.65 L 180.66 494.2" class="joint-vertices-path waiting"/></g></g><g class="joint-tools joint-theme-default waiting" style="cursor: move;"><g class="joint-tool joint-theme-default waiting" data-tool-name="vertices" model-id="f37862fc-696c-4792-bf88-42cac51416c4" style="cursor: move; display: none;"><path fill="none" stroke="transparent" stroke-width="10" cursor="cell" joint-selector="connection" d="M 162 487.5 L 153.92 137" class="joint-vertices-path waiting"/></g></g><g class="joint-tools joint-theme-default waiting" style="cursor: move;"><g class="joint-tool joint-theme-default waiting" data-tool-name="vertices" model-id="f5f5d270-d5fa-4579-8dc5-b75d801f4dc0" style="cursor: move; display: none;"><path fill="none" stroke="transparent" stroke-width="10" cursor="cell" joint-selector="connection" d="M 185.17 137 C 181.13083333333333 127.16666666666667 177.0916666666667 117.33333333333334 190 143 C 202.9083333333333 168.66666666666666 232.76416666666665 229.83333333333331 262.62 291" class="joint-vertices-path waiting"/><circle r="6" fill="#33334F" stroke="#FFFFFF" stroke-width="2" cursor="move" class="joint-marker-vertex joint-theme-default waiting" cx="190" cy="143" model-id="f5f5d270-d5fa-4579-8dc5-b75d801f4dc0"/></g></g><g class="joint-tools joint-theme-default waiting" style="cursor: move;"><g class="joint-tool joint-theme-default waiting" data-tool-name="vertices" model-id="0e862b45-f390-492c-bd47-bc96a40c92a0" style="cursor: move; display: none;"><path fill="none" stroke="transparent" stroke-width="10" cursor="cell" joint-selector="connection" d="M 278 314 C 352.5925 367.75 427.18499999999995 421.5 458 444 C 488.81500000000005 466.5 475.8525 457.75 462.89 449" class="joint-vertices-path waiting"/><circle r="6" fill="#33334F" stroke="#FFFFFF" stroke-width="2" cursor="move" class="joint-marker-vertex joint-theme-default waiting" cx="458" cy="444" model-id="0e862b45-f390-492c-bd47-bc96a40c92a0"/></g></g><g class="joint-tools joint-theme-default waiting" style="cursor: move;"><g class="joint-tool joint-theme-default waiting" data-tool-name="vertices" model-id="ebd75705-fd29-49ed-a17b-feb9ee86eac3" style="cursor: move; display: none;"><path fill="none" stroke="transparent" stroke-width="10" cursor="cell" joint-selector="connection" d="M 748.23 153 L 645.03 296.5" class="joint-vertices-path waiting"/></g></g><g class="joint-tools joint-theme-default waiting" style="cursor: move;"><g class="joint-tool joint-theme-default waiting" data-tool-name="vertices" model-id="51ed58d4-c6e7-4de3-b661-b41151652e5f" style="cursor: move; display: none;"><path fill="none" stroke="transparent" stroke-width="10" cursor="cell" joint-selector="connection" d="M 635.19 310.5 C 600.2383333333333 361.70833333333337 565.2866666666666 412.9166666666667 549 436 C 532.7133333333334 459.0833333333333 535.0916666666667 454.04166666666663 537.47 449" class="joint-vertices-path waiting"/><circle r="6" fill="#33334F" stroke="#FFFFFF" stroke-width="2" cursor="move" class="joint-marker-vertex joint-theme-default waiting" cx="549" cy="436" model-id="51ed58d4-c6e7-4de3-b661-b41151652e5f"/></g></g></g></g></svg>