<svg xmlns="http://www.w3.org/2000/svg" width="753" height="581" xmlns:xlink="http://www.w3.org/1999/xlink" joint-selector="svg" id="v-2" class="waiting"><defs joint-selector="defs" class="waiting"><marker id="v-21429980022" orient="auto" overflow="visible" markerUnits="userSpaceOnUse" class="waiting"><path id="v-185" stroke="black" fill="none" transform="rotate(180)" d="m 10,-6 l -10,6 10,6" stroke-width="1.2" class="waiting"/></marker><marker id="v-2-933205445" orient="auto" overflow="visible" markerUnits="userSpaceOnUse" class="waiting"><path id="v-203" stroke="black" fill="black" transform="rotate(180)" d="m 12,-6 l -12,6 12,6 z" stroke-width="1.2" class="waiting"/></marker></defs><g joint-selector="layers" class="joint-layers waiting" style="cursor: move;" transform="matrix(1,0,0,1,-103,-21)"><g joint-selector="back" class="joint-back-layer waiting" style="cursor: move;"/><g joint-selector="cells" class="joint-cells-layer joint-viewport waiting" style="cursor: move;"><g model-id="e0fe654b-8aaa-4d16-a89f-e7c36227cdba" data-type="Container" id="j_38" class="joint-cell joint-type-container joint-element joint-theme-default waiting" transform="translate(438,531)" style="cursor: move;"><g id="v-235" style="cursor: move;" class="waiting"><rect class="boundary waiting" id="v-238" fill="rgb(242,242,242)" height="120" rx="100" ry="40" stroke="black" stroke-dasharray="10,5,4,4" stroke-width="2" width="200" display="none" style=""/><circle class="element actorSymbol waiting" id="v-236" cx="40" cy="40" fill="rgb(205,254,205)" r="40" stroke="black" stroke-width="2" transform="translate(-20, -20)" style=""/><path class="waiting"/><text class="content waiting" id="v-237" font-size="12" xml:space="preserve" y="0.8em" fill="#000000" font-family="Arial, helvetica, sans-serif" text-anchor="middle" transform="matrix(1,0,0,1,20,14.4)"><tspan dy="0" class="v-line waiting">Organizador</tspan></text></g></g><g model-id="68dd9af8-5457-4b17-ac60-1e74ba44a4b8" data-type="Container" id="j_37" class="joint-cell joint-type-container joint-element joint-theme-default waiting" transform="translate(757,92)" style="cursor: move;"><g id="v-225" style="cursor: move;" class="waiting"><rect class="boundary waiting" id="v-228" fill="rgb(242,242,242)" height="120" rx="100" ry="40" stroke="black" stroke-dasharray="10,5,4,4" stroke-width="2" width="200" display="none" style=""/><circle class="element actorSymbol waiting" id="v-226" cx="40" cy="40" fill="rgb(205,254,205)" r="40" stroke="black" stroke-width="2" transform="translate(-20, -20)" style=""/><path class="waiting"/><text class="content waiting" id="v-227" font-size="12" xml:space="preserve" y="0.8em" fill="#000000" font-family="Arial, helvetica, sans-serif" text-anchor="middle" transform="matrix(1,0,0,1,20,14.4)"><tspan dy="0" class="v-line waiting">Instrutores</tspan></text></g></g><g model-id="dc5b3b6d-09b9-41a9-a7df-a18c5fcda4c4" data-type="Container" id="j_36" class="joint-cell joint-type-container joint-element joint-theme-default waiting" transform="translate(133,77)" style="cursor: move;"><g id="v-215" style="cursor: move;" class="waiting"><rect class="boundary waiting" id="v-218" fill="rgb(242,242,242)" height="120" rx="100" ry="40" stroke="black" stroke-dasharray="10,5,4,4" stroke-width="2" width="200" display="none" style=""/><circle class="element actorSymbol waiting" id="v-216" cx="40" cy="40" fill="rgb(205,254,205)" r="40" stroke="black" stroke-width="2" transform="translate(-20, -20)" style=""/><path class="waiting"/><text class="content waiting" id="v-217" font-size="12" xml:space="preserve" y="0.8em" fill="#000000" font-family="Arial, helvetica, sans-serif" text-anchor="middle" transform="matrix(1,0,0,1,20,14.4)"><tspan dy="0" class="v-line waiting">Aluno</tspan></text></g></g><g model-id="906453c0-c977-454a-a4d6-9a1956f953fc" data-type="DependencyLink" id="j_77" class="joint-cell joint-type-dependencylink joint-link joint-theme-default waiting" style="cursor: move;"><path joint-selector="connection-wrap" id="v-674" fill="none" stroke="rgba(190, 190, 190, 0)" stroke-linecap="round" stroke-width="30" d="M 764.98 544.92 L 498 550.21" class="c-connection-wrap waiting"/><path joint-selector="line" id="v-673" fill="none" stroke="black" stroke-width="1" d="M 764.98 544.92 L 498 550.21" class="waiting"/><path joint-selector="label" id="v-675" d="m 0,-10 l 0,20 4,0 c 10,0, 10 -20, 0,-20 l -4,0" fill="white" stroke="black" stroke-width="2" transform="matrix(-0.9998037582234629,0.019810225698850818,-0.019810225698850818,-0.9998037582234629,631.5,547.6)" class="waiting"/></g><g model-id="818fc6d8-bf5e-42c4-9ab7-488d3e19a065" data-type="DependencyLink" id="j_76" class="joint-cell joint-type-dependencylink joint-link joint-theme-default waiting" style="cursor: move;"><path joint-selector="connection-wrap" class="c-connection-wrap waiting" id="v-671" fill="none" stroke="rgba(190, 190, 190, 0)" stroke-linecap="round" stroke-width="30" d="M 779.25 152 L 800.6 531.2"/><path joint-selector="line" id="v-670" fill="none" stroke="black" stroke-width="1" d="M 779.25 152 L 800.6 531.2" class="waiting"/><path joint-selector="label" id="v-672" d="m 0,-10 l 0,20 4,0 c 10,0, 10 -20, 0,-20 l -4,0" fill="white" stroke="black" stroke-width="2" transform="matrix(0.05621365126492263,0.9984187625497959,-0.9984187625497959,0.05621365126492263,789.9,341.6)" class="waiting"/></g><g model-id="4a64fae7-ec14-4ca3-955f-f3e413be402a" data-type="DependencyLink" id="j_74" class="joint-cell joint-type-dependencylink joint-link joint-theme-default waiting" style="cursor: move;"><path joint-selector="connection-wrap" id="v-624" fill="none" stroke="rgba(190, 190, 190, 0)" stroke-linecap="round" stroke-width="30" d="M 686.03 501.18 L 498 542.26" class="c-connection-wrap waiting"/><path joint-selector="line" id="v-623" fill="none" stroke="black" stroke-width="1" d="M 686.03 501.18 L 498 542.26" class="waiting"/><path joint-selector="label" id="v-625" d="m 0,-10 l 0,20 4,0 c 10,0, 10 -20, 0,-20 l -4,0" fill="white" stroke="black" stroke-width="2" transform="matrix(-0.9769558946073957,0.21344127996210843,-0.21344127996210843,-0.9769558946073957,592,521.7)" class="waiting"/></g><g model-id="6028ad36-65d5-4b48-acf8-da2372fa326e" data-type="DependencyLink" id="j_73" class="joint-cell joint-type-dependencylink joint-link joint-theme-default waiting" style="cursor: move;"><path joint-selector="connection-wrap" class="c-connection-wrap waiting" id="v-621" fill="none" stroke="rgba(190, 190, 190, 0)" stroke-linecap="round" stroke-width="30" d="M 772.6 152 L 736.83 477.4"/><path joint-selector="line" id="v-620" fill="none" stroke="black" stroke-width="1" d="M 772.6 152 L 736.83 477.4" class="waiting"/><path joint-selector="label" id="v-622" d="m 0,-10 l 0,20 4,0 c 10,0, 10 -20, 0,-20 l -4,0" fill="white" stroke="black" stroke-width="2" transform="matrix(-0.10926806916320303,0.9940123183649916,-0.9940123183649916,-0.10926806916320303,754.7,314.7)" class="waiting"/></g><g model-id="e88864b2-8246-4ff3-aa57-029a438d97ad" data-type="DependencyLink" id="j_71" class="joint-cell joint-type-dependencylink joint-link joint-theme-default waiting" style="cursor: move;"><path joint-selector="connection-wrap" id="v-469" fill="none" stroke="rgba(190, 190, 190, 0)" stroke-linecap="round" stroke-width="30" d="M 588.94 326.9 L 742 152" class="c-connection-wrap waiting"/><path joint-selector="line" id="v-468" fill="none" stroke="black" stroke-width="1" d="M 588.94 326.9 L 742 152" class="waiting"/><path joint-selector="label" id="v-470" d="m 0,-10 l 0,20 4,0 c 10,0, 10 -20, 0,-20 l -4,0" fill="white" stroke="black" stroke-width="2" transform="matrix(0.6585593634417117,-0.7525287800630932,0.7525287800630932,0.6585593634417117,665.5,239.4)" class="waiting"/></g><g model-id="88030bb8-aec0-4d37-9baa-b5c1e8901ea5" data-type="DependencyLink" id="j_70" class="joint-cell joint-type-dependencylink joint-link joint-theme-default waiting" style="cursor: move;"><path joint-selector="connection-wrap" class="c-connection-wrap waiting" id="v-466" fill="none" stroke="rgba(190, 190, 190, 0)" stroke-linecap="round" stroke-width="30" d="M 480.65 511 L 570.2 352.9"/><path joint-selector="line" id="v-465" fill="none" stroke="black" stroke-width="1" d="M 480.65 511 L 570.2 352.9" class="waiting"/><path joint-selector="label" id="v-467" d="m 0,-10 l 0,20 4,0 c 10,0, 10 -20, 0,-20 l -4,0" fill="white" stroke="black" stroke-width="2" transform="matrix(0.49284582302792135,-0.8701166558134207,0.8701166558134207,0.49284582302792135,525.4,432)" class="waiting"/></g><g model-id="74a894a9-7daa-4bea-91a3-6fbd31e139f0" data-type="DependencyLink" id="j_68" class="joint-cell joint-type-dependencylink joint-link joint-theme-default waiting" style="cursor: move;"><path joint-selector="connection-wrap" id="v-380" fill="none" stroke="rgba(190, 190, 190, 0)" stroke-linecap="round" stroke-width="30" d="M 330.97 437.4 L 418 515.23" class="c-connection-wrap waiting"/><path joint-selector="line" id="v-379" fill="none" stroke="black" stroke-width="1" d="M 330.97 437.4 L 418 515.23" class="waiting"/><path joint-selector="label" id="v-381" d="m 0,-10 l 0,20 4,0 c 10,0, 10 -20, 0,-20 l -4,0" fill="white" stroke="black" stroke-width="2" transform="matrix(0.7454070425815975,0.6666095865420453,-0.6666095865420453,0.7454070425815975,374.5,476.3)" class="waiting"/></g><g model-id="2ecc6b17-c767-4a65-bf4a-f3b6a722c93b" data-type="DependencyLink" id="j_67" class="joint-cell joint-type-dependencylink joint-link joint-theme-default waiting" style="cursor: move;"><path joint-selector="connection-wrap" class="c-connection-wrap waiting" id="v-377" fill="none" stroke="rgba(190, 190, 190, 0)" stroke-linecap="round" stroke-width="30" d="M 172.97 137 L 309.94 411.4"/><path joint-selector="line" id="v-376" fill="none" stroke="black" stroke-width="1" d="M 172.97 137 L 309.94 411.4" class="waiting"/><path joint-selector="label" id="v-378" d="m 0,-10 l 0,20 4,0 c 10,0, 10 -20, 0,-20 l -4,0" fill="white" stroke="black" stroke-width="2" transform="matrix(0.44661354111048784,0.8947269666757287,-0.8947269666757287,0.44661354111048784,241.5,274.2)" class="waiting"/></g><g model-id="2c33c469-2d15-410f-b3b2-e11152ebcf24" data-type="DependencyLink" id="j_65" class="joint-cell joint-type-dependencylink joint-link joint-theme-default waiting" style="cursor: move;"><path joint-selector="connection-wrap" id="v-366" fill="none" stroke="rgba(190, 190, 190, 0)" stroke-linecap="round" stroke-width="30" d="M 186.77 517.5 L 156.21 137" class="c-connection-wrap waiting"/><path joint-selector="line" id="v-365" fill="none" stroke="black" stroke-width="1" d="M 186.77 517.5 L 156.21 137" class="waiting"/><path joint-selector="label" id="v-367" d="m 0,-10 l 0,20 4,0 c 10,0, 10 -20, 0,-20 l -4,0" fill="white" stroke="black" stroke-width="2" transform="matrix(-0.08005780590797788,-0.9967902225208675,0.9967902225208675,-0.08005780590797788,171.5,327.3)" class="waiting"/></g><g model-id="676d5833-1120-4856-b585-940fc07f4700" data-type="DependencyLink" id="j_64" class="joint-cell joint-type-dependencylink joint-link joint-theme-default waiting" style="cursor: move;"><path joint-selector="connection-wrap" class="c-connection-wrap waiting" id="v-363" fill="none" stroke="rgba(190, 190, 190, 0)" stroke-linecap="round" stroke-width="30" d="M 418 547.08 L 220.01 527.7"/><path joint-selector="line" id="v-362" fill="none" stroke="black" stroke-width="1" d="M 418 547.08 L 220.01 527.7" class="waiting"/><path joint-selector="label" id="v-364" d="m 0,-10 l 0,20 4,0 c 10,0, 10 -20, 0,-20 l -4,0" fill="white" stroke="black" stroke-width="2" transform="matrix(-0.9952435404225619,-0.09741814639565034,0.09741814639565034,-0.9952435404225619,319,537.4)" class="waiting"/></g><g model-id="23273694-d246-4cd3-b4d0-39502fc8e428" data-type="DependencyLink" id="j_62" class="joint-cell joint-type-dependencylink joint-link joint-theme-default waiting" style="cursor: move;"><path joint-selector="connection-wrap" id="v-352" fill="none" stroke="rgba(190, 190, 190, 0)" stroke-linecap="round" stroke-width="30" d="M 432.98 222 L 193 114.86" class="c-connection-wrap waiting"/><path joint-selector="line" id="v-351" fill="none" stroke="black" stroke-width="1" d="M 432.98 222 L 193 114.86" class="waiting"/><path joint-selector="label" id="v-353" d="m 0,-10 l 0,20 4,0 c 10,0, 10 -20, 0,-20 l -4,0" fill="white" stroke="black" stroke-width="2" transform="matrix(-0.9131292463536038,-0.40767018465139127,0.40767018465139127,-0.9131292463536038,313,168.4)" class="waiting"/></g><g model-id="2fc44700-1db6-433e-babd-aa5088727e31" data-type="DependencyLink" id="j_61" class="joint-cell joint-type-dependencylink joint-link joint-theme-default waiting" style="cursor: move;"><path joint-selector="connection-wrap" class="c-connection-wrap waiting" id="v-349" fill="none" stroke="rgba(190, 190, 190, 0)" stroke-linecap="round" stroke-width="30" d="M 737 126.25 L 468.3 222"/><path joint-selector="line" id="v-348" fill="none" stroke="black" stroke-width="1" d="M 737 126.25 L 468.3 222" class="waiting"/><path joint-selector="label" id="v-350" d="m 0,-10 l 0,20 4,0 c 10,0, 10 -20, 0,-20 l -4,0" fill="white" stroke="black" stroke-width="2" transform="matrix(-0.9419795798934626,0.33567018196994464,-0.33567018196994464,-0.9419795798934626,602.7,174.1)" class="waiting"/></g><g model-id="f6bd1501-974d-4e1f-8e5e-c3bb28033e91" data-type="DependencyLink" id="j_59" class="joint-cell joint-type-dependencylink joint-link joint-theme-default waiting" style="cursor: move;"><path joint-selector="connection-wrap" id="v-341" fill="none" stroke="rgba(190, 190, 190, 0)" stroke-linecap="round" stroke-width="30" d="M 632.89 403.5 C 602.6858333333332 425.07416666666666 572.4816666666667 446.64833333333337 550 465 C 527.5183333333333 483.35166666666663 512.7591666666667 498.4808333333333 498 513.61" class="c-connection-wrap waiting"/><path joint-selector="line" id="v-340" fill="none" stroke="black" stroke-width="1" d="M 632.89 403.5 C 602.6858333333332 425.07416666666666 572.4816666666667 446.64833333333337 550 465 C 527.5183333333333 483.35166666666663 512.7591666666667 498.4808333333333 498 513.61" class="waiting"/><path joint-selector="label" id="v-342" d="m 0,-10 l 0,20 4,0 c 10,0, 10 -20, 0,-20 l -4,0" fill="white" stroke="black" stroke-width="2" transform="matrix(-0.7897624200329567,0.613412846216712,-0.613412846216712,-0.7897624200329567,562.5,455)" class="waiting"/></g><g model-id="3766fa48-83c1-4770-8e3f-326347348467" data-type="DependencyLink" id="j_58" class="joint-cell joint-type-dependencylink joint-link joint-theme-default waiting" style="cursor: move;"><path joint-selector="connection-wrap" class="c-connection-wrap waiting" id="v-338" fill="none" stroke="rgba(190, 190, 190, 0)" stroke-linecap="round" stroke-width="30" d="M 758.07 152 L 645.64 389.5"/><path joint-selector="line" id="v-337" fill="none" stroke="black" stroke-width="1" d="M 758.07 152 L 645.64 389.5" class="waiting"/><path joint-selector="label" id="v-339" d="m 0,-10 l 0,20 4,0 c 10,0, 10 -20, 0,-20 l -4,0" fill="white" stroke="black" stroke-width="2" transform="matrix(-0.4278687609069803,0.9038408728531396,-0.9038408728531396,-0.4278687609069803,701.9,270.8)" class="waiting"/></g><g model-id="594c7549-e06f-4009-9ac8-c1858002e217" data-type="DependencyLink" id="j_53" class="joint-cell joint-type-dependencylink joint-link joint-theme-default waiting" style="cursor: move;"><path joint-selector="connection-wrap" id="v-313" fill="none" stroke="rgba(190, 190, 190, 0)" stroke-linecap="round" stroke-width="30" d="M 239.54 471.5 L 162.24 137" class="c-connection-wrap waiting"/><path joint-selector="line" id="v-312" fill="none" stroke="black" stroke-width="1" d="M 239.54 471.5 L 162.24 137" class="waiting"/><path joint-selector="label" id="v-314" d="m 0,-10 l 0,20 4,0 c 10,0, 10 -20, 0,-20 l -4,0" fill="white" stroke="black" stroke-width="2" transform="matrix(-0.22515708472603105,-0.9743224759789106,0.9743224759789106,-0.22515708472603105,200.9,304.3)" class="waiting"/></g><g model-id="e21731a0-d419-4851-acb3-2e4facc198d9" data-type="DependencyLink" id="j_52" class="joint-cell joint-type-dependencylink joint-link joint-theme-default waiting" style="cursor: move;"><path joint-selector="connection-wrap" class="c-connection-wrap waiting" id="v-310" fill="none" stroke="rgba(190, 190, 190, 0)" stroke-linecap="round" stroke-width="30" d="M 418 537.63 L 259.66 484.68"/><path joint-selector="line" id="v-309" fill="none" stroke="black" stroke-width="1" d="M 418 537.63 L 259.66 484.68" class="waiting"/><path joint-selector="label" id="v-311" d="m 0,-10 l 0,20 4,0 c 10,0, 10 -20, 0,-20 l -4,0" fill="white" stroke="black" stroke-width="2" transform="matrix(-0.9483773857280823,-0.3171440275956151,0.3171440275956151,-0.9483773857280823,338.8,511.2)" class="waiting"/></g><g model-id="a78fc7ee-4380-46ca-a7f1-9441174b9443" data-type="DependencyLink" id="j_50" class="joint-cell joint-type-dependencylink joint-link joint-theme-default waiting" style="cursor: move;"><path joint-selector="connection-wrap" class="c-connection-wrap waiting" id="v-299" fill="none" stroke="rgba(190, 190, 190, 0)" stroke-linecap="round" stroke-width="30" d="M 671.04 453.5 L 498 532.69"/><path joint-selector="line" id="v-298" fill="none" stroke="black" stroke-width="1" d="M 671.04 453.5 L 498 532.69" class="waiting"/><path joint-selector="label" id="v-300" d="m 0,-10 l 0,20 4,0 c 10,0, 10 -20, 0,-20 l -4,0" fill="white" stroke="black" stroke-width="2" transform="matrix(-0.9093035678881176,0.4161334178192607,-0.4161334178192607,-0.9093035678881176,584.5,493.1)" class="waiting"/></g><g model-id="414230dc-e677-4f71-b62e-e6a6c7304a9a" data-type="DependencyLink" id="j_49" class="joint-cell joint-type-dependencylink joint-link joint-theme-default waiting" style="cursor: move;"><path joint-selector="connection-wrap" class="c-connection-wrap waiting" id="v-296" fill="none" stroke="rgba(190, 190, 190, 0)" stroke-linecap="round" stroke-width="30" d="M 766.16 152 L 688.23 439.5"/><path joint-selector="line" id="v-295" fill="none" stroke="black" stroke-width="1" d="M 766.16 152 L 688.23 439.5" class="waiting"/><path joint-selector="label" id="v-297" d="m 0,-10 l 0,20 4,0 c 10,0, 10 -20, 0,-20 l -4,0" fill="white" stroke="black" stroke-width="2" transform="matrix(-0.2616200849342709,0.965170933648017,-0.965170933648017,-0.2616200849342709,727.2,295.8)" class="waiting"/></g><g model-id="5faa42b8-c7a1-4201-9d83-6f5134b46404" data-type="DependencyLink" id="j_47" class="joint-cell joint-type-dependencylink joint-link joint-theme-default waiting" style="cursor: move;"><path joint-selector="connection-wrap" id="v-285" fill="none" stroke="rgba(190, 190, 190, 0)" stroke-linecap="round" stroke-width="30" d="M 396.28 67.31 L 193 92.12" class="c-connection-wrap waiting"/><path joint-selector="line" id="v-284" fill="none" stroke="black" stroke-width="1" d="M 396.28 67.31 L 193 92.12" class="waiting"/><path joint-selector="label" id="v-286" d="m 0,-10 l 0,20 4,0 c 10,0, 10 -20, 0,-20 l -4,0" fill="white" stroke="black" stroke-width="2" transform="matrix(-0.9926342677113187,0.12114953803136878,-0.12114953803136878,-0.9926342677113187,294.6,79.7)" class="waiting"/></g><g model-id="fbf90e6d-01fe-4c42-9d85-86373061f54b" data-type="DependencyLink" id="j_46" class="joint-cell joint-type-dependencylink joint-link joint-theme-default waiting" style="cursor: move;"><path joint-selector="connection-wrap" class="c-connection-wrap waiting" id="v-282" fill="none" stroke="rgba(190, 190, 190, 0)" stroke-linecap="round" stroke-width="30" d="M 737 105.72 L 504.64 69.21"/><path joint-selector="line" id="v-281" fill="none" stroke="black" stroke-width="1" d="M 737 105.72 L 504.64 69.21" class="waiting"/><path joint-selector="label" id="v-283" d="m 0,-10 l 0,20 4,0 c 10,0, 10 -20, 0,-20 l -4,0" fill="white" stroke="black" stroke-width="2" transform="matrix(-0.9878795294594787,-0.15522253468784444,0.15522253468784444,-0.9878795294594787,620.8,87.5)" class="waiting"/></g><g model-id="a05fa236-8ded-420e-8269-dc498e183d2b" data-type="DependencyLink" id="j_44" class="joint-cell joint-type-dependencylink joint-link joint-theme-default waiting" style="cursor: move;"><path joint-selector="connection-wrap" id="v-271" fill="none" stroke="rgba(190, 190, 190, 0)" stroke-linecap="round" stroke-width="30" d="M 523.5 153.19 L 737 118.5" class="c-connection-wrap waiting"/><path joint-selector="line" id="v-270" fill="none" stroke="black" stroke-width="1" d="M 523.5 153.19 L 737 118.5" class="waiting"/><path joint-selector="label" id="v-272" d="m 0,-10 l 0,20 4,0 c 10,0, 10 -20, 0,-20 l -4,0" fill="white" stroke="black" stroke-width="2" transform="matrix(0.9870554608281,-0.1603792918347851,0.1603792918347851,0.9870554608281,630.3,135.8)" class="waiting"/></g><g model-id="aaf1494d-d627-47bc-a25d-71e8157aeed6" data-type="DependencyLink" id="j_43" class="joint-cell joint-type-dependencylink joint-link joint-theme-default waiting" style="cursor: move;"><path joint-selector="connection-wrap" class="c-connection-wrap waiting" id="v-268" fill="none" stroke="rgba(190, 190, 190, 0)" stroke-linecap="round" stroke-width="30" d="M 193 106.23 L 374.42 148.1"/><path joint-selector="line" id="v-267" fill="none" stroke="black" stroke-width="1" d="M 193 106.23 L 374.42 148.1" class="waiting"/><path joint-selector="label" id="v-269" d="m 0,-10 l 0,20 4,0 c 10,0, 10 -20, 0,-20 l -4,0" fill="white" stroke="black" stroke-width="2" transform="matrix(0.974386667903955,0.22487912622346176,-0.22487912622346176,0.974386667903955,283.7,127.2)" class="waiting"/></g><g model-id="483693dd-459a-4f4d-84e3-911c6b7e4ebb" data-type="DependencyLink" id="j_41" class="joint-cell joint-type-dependencylink joint-link joint-theme-default waiting" style="cursor: move;"><path joint-selector="connection-wrap" class="c-connection-wrap waiting" id="v-257" fill="none" stroke="rgba(190, 190, 190, 0)" stroke-linecap="round" stroke-width="30" d="M 494.67 110.68 L 737 111.81"/><path joint-selector="line" id="v-256" fill="none" stroke="black" stroke-width="1" d="M 494.67 110.68 L 737 111.81" class="waiting"/><path joint-selector="label" id="v-258" d="m 0,-10 l 0,20 4,0 c 10,0, 10 -20, 0,-20 l -4,0" fill="white" stroke="black" stroke-width="2" transform="matrix(0.9999891280993134,0.004663012242633777,-0.004663012242633777,0.9999891280993134,615.8,111.2)" class="waiting"/></g><g model-id="0ca62d0f-a23c-4ca5-abcc-173d2276d20f" data-type="DependencyLink" id="j_40" class="joint-cell joint-type-dependencylink joint-link joint-theme-default waiting" style="cursor: move;"><path joint-selector="connection-wrap" class="c-connection-wrap waiting" id="v-254" fill="none" stroke="rgba(190, 190, 190, 0)" stroke-linecap="round" stroke-width="30" d="M 193 98.79 L 415.99 108.74"/><path joint-selector="line" id="v-253" fill="none" stroke="black" stroke-width="1" d="M 193 98.79 L 415.99 108.74" class="waiting"/><path joint-selector="label" id="v-255" d="m 0,-10 l 0,20 4,0 c 10,0, 10 -20, 0,-20 l -4,0" fill="white" stroke="black" stroke-width="2" transform="matrix(0.9990059745918278,0.044576481801868004,-0.044576481801868004,0.9990059745918278,304.5,103.8)" class="waiting"/></g><g model-id="fee2bffd-b61f-4647-8d72-219796e0a542" data-type="Goal" id="j_39" class="joint-cell joint-type-goal joint-element joint-theme-default waiting" fill="#ffffff" stroke="none" transform="translate(410,93)" style="cursor: move;"><g class="scalable waiting" transform="scale(0.6923076923076923,1.1666666666666667)" style="cursor: move;"><rect class="element waiting" id="v-245" fill="#ffbdbd" height="30" rx="20" stroke="black" stroke-width="2" vector-effect="non-scaling-stroke" width="130"/></g><text class="content waiting" id="v-246" font-size="12" xml:space="preserve" y="0.8em" font-weight="bold" fill="#000000" text-anchor="middle" font-family="Arial, helvetica, sans-serif" transform="matrix(1,0,0,1,45,5.9)"><tspan dy="0" class="v-line waiting">Aprender</tspan><tspan dy="1em" x="0" class="v-line waiting">assunto novo</tspan></text></g><g model-id="756ef536-a34b-4e86-851d-89458d017665" data-type="Task" id="j_42" class="joint-cell joint-type-task joint-element joint-theme-default waiting" fill="#ffffff" stroke="none" transform="translate(369,138)" style="cursor: move;"><g class="scalable waiting" transform="scale(1.2276442307692308,1.5151909722222223)" style="cursor: move;"><polygon class="element waiting" id="v-259" fill="#f1cbff" height="36" points="0,18 15,0 115,0 130,18 115,36 15,36" stroke="black" stroke-width="2" vector-effect="non-scaling-stroke" width="130"/></g><text class="content waiting" id="v-260" font-size="12" xml:space="preserve" y="0.8em" font-weight="bold" text-anchor="middle" fill="#000000" font-family="Arial, helvetica, sans-serif" transform="matrix(1,0,0,1,79.8,9.7)"><tspan dy="0" class="v-line waiting">Fazer</tspan><tspan dy="1em" x="0" class="v-line waiting">exercícios/Comparecer às</tspan><tspan dy="1em" x="0" class="v-line waiting">aulas</tspan></text></g><g model-id="27665900-9f2a-41bf-a230-97f66bab766e" data-type="Quality" id="j_45" class="joint-cell joint-type-quality joint-element joint-theme-default waiting" fill="#ffffff" stroke="none" transform="translate(387,32)" style="cursor: move;"><g class="scalable waiting" transform="scale(1.1048459896709755,1.010765593365922)" style="cursor: move;"><path class="element waiting" id="v-273" d="m 60.637955,-4.0358 c 17.5174,2.2042 29.9953,-10.69554 41.892705,-4.7858 22.34142,10.8714 11.2203,43.7743 -2.25,47.7322 -8.276505,2.9084 -13.960205,5.1934 -46.142805,-2.1786 -6.7454,-2.2317 -28.2652,6.0799 -35.4643,4.7143 C 9.072156,39.4809 6.491756,33.7693 3.744956,28.482 c -6.3069,-15.1266 -2.5738,-28.0439 7.981099,-34.7856 10.5549,-6.74179 27.9316,-7.30796 48.9119,2.2678 z" fill="#c9c9ff" stroke="black" stroke-width="2" vector-effect="non-scaling-stroke" transform="matrix(1,0,0,1,-0.7,11.3)"/></g><text class="content waiting" id="v-274" font-size="12" xml:space="preserve" y="0.8em" font-weight="bold" text-anchor="middle" fill="#000000" font-family="Arial, helvetica, sans-serif" transform="matrix(1,0,0,1,63.3,17.1)"><tspan dy="0" class="v-line waiting">Comparecimento e</tspan><tspan dy="1em" x="0" class="v-line waiting">Empenho</tspan></text></g><g model-id="b2dc3bac-0efe-4e5a-8d26-80cbdb7f99b7" data-type="Goal" id="j_48" class="joint-cell joint-type-goal joint-element joint-theme-default waiting" fill="#ffffff" stroke="none" transform="translate(641,429)" style="cursor: move;"><g class="scalable waiting" transform="scale(0.6923076923076923,1.1666666666666667)" style="cursor: move;"><rect class="element waiting" id="v-287" fill="#FFBDBD" height="30" rx="20" stroke="black" stroke-width="2" vector-effect="non-scaling-stroke" width="130"/></g><text class="content waiting" id="v-288" font-size="12" xml:space="preserve" y="0.8em" font-weight="bold" fill="#000000" text-anchor="middle" font-family="Arial, helvetica, sans-serif" transform="matrix(1,0,0,1,45,11.9)"><tspan dy="0" class="v-line waiting">Ser pago</tspan></text></g><g model-id="fd27166e-a8e5-4a24-8ca9-f503b366d4f3" data-type="Resource" id="j_51" class="joint-cell joint-type-resource joint-element joint-theme-default waiting" fill="#ffffff" stroke="none" transform="translate(196,461)" style="cursor: move;"><g class="scalable waiting" transform="scale(0.6923076923076923,1.1666666666666667)" style="cursor: move;"><rect class="element waiting" id="v-301" fill="#A7C7E7" height="30" rx="0" stroke="black" stroke-width="2" vector-effect="non-scaling-stroke" width="130"/></g><text class="content waiting" id="v-302" font-size="12" xml:space="preserve" y="0.8em" font-weight="bold" fill="#000000" text-anchor="middle" font-family="Arial, helvetica, sans-serif" transform="matrix(1,0,0,1,45,11.9)"><tspan dy="0" class="v-line waiting">Dados</tspan></text></g><g model-id="88da352f-69b6-46c1-b973-6e254b9f23f6" data-type="Resource" id="j_57" class="joint-cell joint-type-resource joint-element joint-theme-default waiting" fill="#ffffff" stroke="none" transform="translate(597,379)" style="cursor: move;"><g class="scalable waiting" transform="scale(0.6923076923076923,1.1666666666666667)" style="cursor: move;"><rect class="element waiting" id="v-329" fill="#A7C7E7" height="30" rx="0" stroke="black" stroke-width="2" vector-effect="non-scaling-stroke" width="130"/></g><text class="content waiting" id="v-330" font-size="12" xml:space="preserve" y="0.8em" font-weight="bold" fill="#000000" text-anchor="middle" font-family="Arial, helvetica, sans-serif" transform="matrix(1,0,0,1,45,11.9)"><tspan dy="0" class="v-line waiting">Pagamento</tspan></text></g><g model-id="7c8dbc4a-8aff-46c2-abfc-ce1da4485c1c" data-type="Task" id="j_60" class="joint-cell joint-type-task joint-element joint-theme-default waiting" fill="#ffffff" stroke="none" transform="translate(401,211)" style="cursor: move;"><g class="scalable waiting" transform="scale(0.7307692307692307,1)" style="cursor: move;"><polygon class="element waiting" id="v-343" fill="#F1CBFF" height="36" points="0,18 15,0 115,0 130,18 115,36 15,36" stroke="black" stroke-width="2" vector-effect="non-scaling-stroke" width="130"/></g><text class="content waiting" id="v-344" font-size="12" xml:space="preserve" y="0.8em" font-weight="bold" text-anchor="middle" fill="#000000" font-family="Arial, helvetica, sans-serif" transform="matrix(1,0,0,1,47.5,12.4)"><tspan dy="0" class="v-line waiting">Dar aulas</tspan></text></g><g model-id="8a1ecf59-737d-4ba9-9b87-7d3527aab761" data-type="Resource" id="j_63" class="joint-cell joint-type-resource joint-element joint-theme-default waiting" fill="#ffffff" stroke="none" transform="translate(142,507)" style="cursor: move;"><g class="scalable waiting" transform="scale(0.6923076923076923,1.1666666666666667)" style="cursor: move;"><rect class="element waiting" id="v-357" fill="#A7C7E7" height="30" rx="0" stroke="black" stroke-width="2" vector-effect="non-scaling-stroke" width="130"/></g><text class="content waiting" id="v-358" font-size="12" xml:space="preserve" y="0.8em" font-weight="bold" fill="#000000" text-anchor="middle" font-family="Arial, helvetica, sans-serif" transform="matrix(1,0,0,1,45,11.9)"><tspan dy="0" class="v-line waiting">Pagamento</tspan></text></g><g model-id="db8e7ab1-8bc8-4882-a0a9-fff3fadd6088" data-type="Task" id="j_66" class="joint-cell joint-type-task joint-element joint-theme-default waiting" fill="#ffffff" stroke="none" transform="translate(243,407)" style="cursor: move;"><g class="scalable waiting" transform="scale(1.1252403846153847,0.9678819444444444)" style="cursor: move;"><polygon class="element waiting" id="v-371" fill="#F1CBFF" height="36" points="0,18 15,0 115,0 130,18 115,36 15,36" stroke="black" stroke-width="2" vector-effect="non-scaling-stroke" width="130"/></g><text class="content waiting" id="v-372" font-size="12" xml:space="preserve" y="0.8em" font-weight="bold" text-anchor="middle" fill="#000000" font-family="Arial, helvetica, sans-serif" transform="matrix(1,0,0,1,73.1,5.8)"><tspan dy="0" class="v-line waiting">Realizar</tspan><tspan dy="1em" x="0" class="v-line waiting">matrícula/Pagamento</tspan></text></g><g model-id="531b4328-868c-4b58-9b98-0d6ad91c3db5" data-type="Task" id="j_69" class="joint-cell joint-type-task joint-element joint-theme-default waiting" fill="#ffffff" stroke="none" transform="translate(499,324)" style="cursor: move;"><g class="scalable waiting" transform="scale(1.2060096153846154,0.8845486111111112)" style="cursor: move;"><polygon class="element waiting" id="v-460" fill="#F1CBFF" height="36" points="0,18 15,0 115,0 130,18 115,36 15,36" stroke="black" stroke-width="2" vector-effect="non-scaling-stroke" width="130"/></g><text class="content waiting" id="v-461" font-size="12" xml:space="preserve" y="0.8em" font-weight="bold" text-anchor="middle" fill="#000000" font-family="Arial, helvetica, sans-serif" transform="matrix(1,0,0,1,78.4,4.3)"><tspan dy="0" class="v-line waiting">Prover infraestrutura e</tspan><tspan dy="1em" x="0" class="v-line waiting">recursos</tspan></text></g><g model-id="f7c2e3cc-295c-4ae1-b630-0b7617add7b1" data-type="Task" id="j_72" class="joint-cell joint-type-task joint-element joint-theme-default waiting" fill="#ffffff" stroke="none" transform="translate(674,473)" style="cursor: move;"><g class="scalable waiting" transform="scale(0.9444711538461539,0.9678819444444444)" style="cursor: move;"><polygon class="element waiting" id="v-615" fill="#F1CBFF" height="36" points="0,18 15,0 115,0 130,18 115,36 15,36" stroke="black" stroke-width="2" vector-effect="non-scaling-stroke" width="130"/></g><text class="content waiting" id="v-616" font-size="12" xml:space="preserve" y="0.8em" font-weight="bold" text-anchor="middle" fill="#000000" font-family="Arial, helvetica, sans-serif" transform="matrix(1,0,0,1,61.4,5.8)"><tspan dy="0" class="v-line waiting">Preparar material</tspan><tspan dy="1em" x="0" class="v-line waiting">de aulas</tspan></text></g><g model-id="57fc87ca-06bf-4684-affb-ea19016dc06b" data-type="Quality" id="j_75" class="joint-cell joint-type-quality joint-element joint-theme-default waiting" fill="#ffffff" stroke="none" transform="translate(756,515)" style="cursor: move;"><g class="scalable waiting" transform="scale(0.7852376964064524,1.0380876717711)" style="cursor: move;"><path class="element waiting" id="v-665" d="m 60.637955,-4.0358 c 17.5174,2.2042 29.9953,-10.69554 41.892705,-4.7858 22.34142,10.8714 11.2203,43.7743 -2.25,47.7322 -8.276505,2.9084 -13.960205,5.1934 -46.142805,-2.1786 -6.7454,-2.2317 -28.2652,6.0799 -35.4643,4.7143 C 9.072156,39.4809 6.491756,33.7693 3.744956,28.482 c -6.3069,-15.1266 -2.5738,-28.0439 7.981099,-34.7856 10.5549,-6.74179 27.9316,-7.30796 48.9119,2.2678 z" fill="#C9C9FF" stroke="black" stroke-width="2" vector-effect="non-scaling-stroke" transform="matrix(1,0,0,1,-0.7,11.3)"/></g><text class="content waiting" id="v-666" font-size="12" xml:space="preserve" y="0.8em" font-weight="bold" text-anchor="middle" fill="#000000" font-family="Arial, helvetica, sans-serif" transform="matrix(1,0,0,1,45,17.6)"><tspan dy="0" class="v-line waiting">Organização</tspan><tspan dy="1em" x="0" class="v-line waiting">de horários</tspan></text></g></g><g joint-selector="front" class="joint-front-layer waiting" style="cursor: move;"/><g joint-selector="tools" class="joint-tools-layer waiting" style="cursor: move;"><g class="joint-tools joint-theme-default waiting" style="cursor: move;"><g class="joint-tool joint-theme-default waiting" data-tool-name="vertices" model-id="0ca62d0f-a23c-4ca5-abcc-173d2276d20f" style="cursor: move; display: none;"><path fill="none" stroke="transparent" stroke-width="10" cursor="cell" joint-selector="connection" d="M 193 98.79 L 415.99 108.74" class="joint-vertices-path waiting"/></g></g><g class="joint-tools joint-theme-default waiting" style="cursor: move;"><g class="joint-tool joint-theme-default waiting" data-tool-name="vertices" model-id="483693dd-459a-4f4d-84e3-911c6b7e4ebb" style="cursor: move; display: none;"><path fill="none" stroke="transparent" stroke-width="10" cursor="cell" joint-selector="connection" d="M 494.67 110.68 L 737 111.81" class="joint-vertices-path waiting"/></g></g><g class="joint-tools joint-theme-default waiting" style="cursor: move;"><g class="joint-tool joint-theme-default waiting" data-tool-name="vertices" model-id="aaf1494d-d627-47bc-a25d-71e8157aeed6" style="cursor: move; display: none;"><path fill="none" stroke="transparent" stroke-width="10" cursor="cell" joint-selector="connection" d="M 193 106.23 L 374.42 148.1" class="joint-vertices-path waiting"/></g></g><g class="joint-tools joint-theme-default waiting" style="cursor: move;"><g class="joint-tool joint-theme-default waiting" data-tool-name="vertices" model-id="a05fa236-8ded-420e-8269-dc498e183d2b" style="cursor: move; display: none;"><path fill="none" stroke="transparent" stroke-width="10" cursor="cell" joint-selector="connection" d="M 523.5 153.19 L 737 118.5" class="joint-vertices-path waiting"/></g></g><g class="joint-tools joint-theme-default waiting" style="cursor: move;"><g class="joint-tool joint-theme-default waiting" data-tool-name="vertices" model-id="fbf90e6d-01fe-4c42-9d85-86373061f54b" style="cursor: move; display: none;"><path fill="none" stroke="transparent" stroke-width="10" cursor="cell" joint-selector="connection" d="M 737 105.72 L 504.64 69.21" class="joint-vertices-path waiting"/></g></g><g class="joint-tools joint-theme-default waiting" style="cursor: move;"><g class="joint-tool joint-theme-default waiting" data-tool-name="vertices" model-id="5faa42b8-c7a1-4201-9d83-6f5134b46404" style="cursor: move; display: none;"><path fill="none" stroke="transparent" stroke-width="10" cursor="cell" joint-selector="connection" d="M 396.28 67.31 L 193 92.12" class="joint-vertices-path waiting"/></g></g><g class="joint-tools joint-theme-default waiting" style="cursor: move;"><g class="joint-tool joint-theme-default waiting" data-tool-name="vertices" model-id="414230dc-e677-4f71-b62e-e6a6c7304a9a" style="cursor: move; display: none;"><path fill="none" stroke="transparent" stroke-width="10" cursor="cell" joint-selector="connection" d="M 766.16 152 L 688.23 439.5" class="joint-vertices-path waiting"/></g></g><g class="joint-tools joint-theme-default waiting" style="cursor: move;"><g class="joint-tool joint-theme-default waiting" data-tool-name="vertices" model-id="a78fc7ee-4380-46ca-a7f1-9441174b9443" style="cursor: move; display: none;"><path fill="none" stroke="transparent" stroke-width="10" cursor="cell" joint-selector="connection" d="M 671.04 453.5 L 498 532.69" class="joint-vertices-path waiting"/></g></g><g class="joint-tools joint-theme-default waiting" style="cursor: move;"><g class="joint-tool joint-theme-default waiting" data-tool-name="vertices" model-id="e21731a0-d419-4851-acb3-2e4facc198d9" style="cursor: move; display: none;"><path fill="none" stroke="transparent" stroke-width="10" cursor="cell" joint-selector="connection" d="M 418 537.63 L 259.66 484.68" class="joint-vertices-path waiting"/></g></g><g class="joint-tools joint-theme-default waiting" style="cursor: move;"><g class="joint-tool joint-theme-default waiting" data-tool-name="vertices" model-id="594c7549-e06f-4009-9ac8-c1858002e217" style="cursor: move; display: none;"><path fill="none" stroke="transparent" stroke-width="10" cursor="cell" joint-selector="connection" d="M 239.54 471.5 L 162.24 137" class="joint-vertices-path waiting"/></g></g><g class="joint-tools joint-theme-default waiting" style="cursor: move;"><g class="joint-tool joint-theme-default waiting" data-tool-name="vertices" model-id="3766fa48-83c1-4770-8e3f-326347348467" style="cursor: move; display: none;"><path fill="none" stroke="transparent" stroke-width="10" cursor="cell" joint-selector="connection" d="M 758.07 152 L 645.64 389.5" class="joint-vertices-path waiting"/></g></g><g class="joint-tools joint-theme-default waiting" style="cursor: move;"><g class="joint-tool joint-theme-default waiting" data-tool-name="vertices" model-id="f6bd1501-974d-4e1f-8e5e-c3bb28033e91" style="cursor: move; display: none;"><path fill="none" stroke="transparent" stroke-width="10" cursor="cell" joint-selector="connection" d="M 632.89 403.5 C 602.6858333333332 425.07416666666666 572.4816666666667 446.64833333333337 550 465 C 527.5183333333333 483.35166666666663 512.7591666666667 498.4808333333333 498 513.61" class="joint-vertices-path waiting"/><circle r="6" fill="#33334F" stroke="#FFFFFF" stroke-width="2" cursor="move" class="joint-marker-vertex joint-theme-default waiting" cx="550" cy="465" model-id="f6bd1501-974d-4e1f-8e5e-c3bb28033e91"/></g></g><g class="joint-tools joint-theme-default waiting" style="cursor: move;"><g class="joint-tool joint-theme-default waiting" data-tool-name="vertices" model-id="2fc44700-1db6-433e-babd-aa5088727e31" style="cursor: move; display: none;"><path fill="none" stroke="transparent" stroke-width="10" cursor="cell" joint-selector="connection" d="M 737 126.25 L 468.3 222" class="joint-vertices-path waiting"/></g></g><g class="joint-tools joint-theme-default waiting" style="cursor: move;"><g class="joint-tool joint-theme-default waiting" data-tool-name="vertices" model-id="23273694-d246-4cd3-b4d0-39502fc8e428" style="cursor: move; display: none;"><path fill="none" stroke="transparent" stroke-width="10" cursor="cell" joint-selector="connection" d="M 432.98 222 L 193 114.86" class="joint-vertices-path waiting"/></g></g><g class="joint-tools joint-theme-default waiting" style="cursor: move;"><g class="joint-tool joint-theme-default waiting" data-tool-name="vertices" model-id="676d5833-1120-4856-b585-940fc07f4700" style="cursor: move; display: none;"><path fill="none" stroke="transparent" stroke-width="10" cursor="cell" joint-selector="connection" d="M 418 547.08 L 220.01 527.7" class="joint-vertices-path waiting"/></g></g><g class="joint-tools joint-theme-default waiting" style="cursor: move;"><g class="joint-tool joint-theme-default waiting" data-tool-name="vertices" model-id="2c33c469-2d15-410f-b3b2-e11152ebcf24" style="cursor: move; display: none;"><path fill="none" stroke="transparent" stroke-width="10" cursor="cell" joint-selector="connection" d="M 186.77 517.5 L 156.21 137" class="joint-vertices-path waiting"/></g></g><g class="joint-tools joint-theme-default waiting" style="cursor: move;"><g class="joint-tool joint-theme-default waiting" data-tool-name="vertices" model-id="2ecc6b17-c767-4a65-bf4a-f3b6a722c93b" style="cursor: move; display: none;"><path fill="none" stroke="transparent" stroke-width="10" cursor="cell" joint-selector="connection" d="M 172.97 137 L 309.94 411.4" class="joint-vertices-path waiting"/></g></g><g class="joint-tools joint-theme-default waiting" style="cursor: move;"><g class="joint-tool joint-theme-default waiting" data-tool-name="vertices" model-id="74a894a9-7daa-4bea-91a3-6fbd31e139f0" style="cursor: move; display: none;"><path fill="none" stroke="transparent" stroke-width="10" cursor="cell" joint-selector="connection" d="M 330.97 437.4 L 418 515.23" class="joint-vertices-path waiting"/></g></g><g class="joint-tools joint-theme-default waiting" style="cursor: move;"><g class="joint-tool joint-theme-default waiting" data-tool-name="vertices" model-id="88030bb8-aec0-4d37-9baa-b5c1e8901ea5" style="cursor: move; display: none;"><path fill="none" stroke="transparent" stroke-width="10" cursor="cell" joint-selector="connection" d="M 480.65 511 L 570.2 352.9" class="joint-vertices-path waiting"/></g></g><g class="joint-tools joint-theme-default waiting" style="cursor: move;"><g class="joint-tool joint-theme-default waiting" data-tool-name="vertices" model-id="e88864b2-8246-4ff3-aa57-029a438d97ad" style="cursor: move; display: none;"><path fill="none" stroke="transparent" stroke-width="10" cursor="cell" joint-selector="connection" d="M 588.94 326.9 L 742 152" class="joint-vertices-path waiting"/></g></g><g class="joint-tools joint-theme-default waiting" style="cursor: move;"><g class="joint-tool joint-theme-default waiting" data-tool-name="vertices" model-id="6028ad36-65d5-4b48-acf8-da2372fa326e" style="cursor: move; display: none;"><path fill="none" stroke="transparent" stroke-width="10" cursor="cell" joint-selector="connection" d="M 772.6 152 L 736.83 477.4" class="joint-vertices-path waiting"/></g></g><g class="joint-tools joint-theme-default waiting" style="cursor: move;"><g class="joint-tool joint-theme-default waiting" data-tool-name="vertices" model-id="4a64fae7-ec14-4ca3-955f-f3e413be402a" style="cursor: move; display: none;"><path fill="none" stroke="transparent" stroke-width="10" cursor="cell" joint-selector="connection" d="M 686.03 501.18 L 498 542.26" class="joint-vertices-path waiting"/></g></g><g class="joint-tools joint-theme-default waiting" style="cursor: move;"><g class="joint-tool joint-theme-default waiting" data-tool-name="vertices" model-id="818fc6d8-bf5e-42c4-9ab7-488d3e19a065" style="cursor: move; display: none;"><path fill="none" stroke="transparent" stroke-width="10" cursor="cell" joint-selector="connection" d="M 779.25 152 L 800.6 531.2" class="joint-vertices-path waiting"/></g></g><g class="joint-tools joint-theme-default waiting" style="cursor: move;"><g class="joint-tool joint-theme-default waiting" data-tool-name="vertices" model-id="906453c0-c977-454a-a4d6-9a1956f953fc" style="cursor: move; display: none;"><path fill="none" stroke="transparent" stroke-width="10" cursor="cell" joint-selector="connection" d="M 764.98 544.92 L 498 550.21" class="joint-vertices-path waiting"/></g></g></g></g></svg>